<svg version="1.1" id="Layer_1" xmlns="http://www.w3.org/2000/svg" x="0" y="0" viewBox="0 0 141.7 23.7" xml:space="preserve"><style>.st0{fill:#2baee4}</style><path class="st0" d="M36.4 19.6c-4.3 0-7.8-3.5-7.8-7.7s3.4-7.6 7.6-7.6c3.1 0 5.7 1.6 7 4.5h-3.1c-1-1.3-2.2-1.9-3.9-1.9-2.8 0-4.9 2.2-4.9 5s2.2 5.1 5 5.1c1.4 0 2.5-.5 3.7-1.7h3.2c-1.1 2.6-3.8 4.3-6.8 4.3m13.7 0c-3.3 0-5.9-2.6-5.9-5.8 0-3.2 2.7-5.8 5.9-5.8 3.4 0 5.9 2.6 5.9 5.9.1 3.1-2.6 5.7-5.9 5.7m0-9.2c-1.7 0-3.2 1.5-3.2 3.3 0 1.9 1.4 3.4 3.2 3.4 1.8 0 3.2-1.5 3.2-3.4.1-1.8-1.4-3.3-3.2-3.3m10.1 2.7v6.2h-2.7V8.2H60v1.1c.7-1 1.3-1.3 2.4-1.3h.2v2.6c-1.6-.1-2.4.8-2.4 2.5m14.4 1.8H66c.3 1.3 1.5 2.2 3.1 2.2 1.1 0 1.8-.3 2.4-1.1h2.9c-.7 2.3-3.1 3.6-5.3 3.6-3.4 0-6-2.5-6-5.8s2.6-5.9 5.9-5.9c3.3 0 5.7 2.5 5.7 6 0 .4 0 .6-.1 1M69 10.4c-1.6 0-2.7.8-3.1 2.2h6.2c-.4-1.4-1.4-2.2-3.1-2.2"/><path d="M76.3 19.3V4.5h2.8v12.2h4.5v2.6zm19.2-4.4h-8.6c.3 1.3 1.5 2.2 3.1 2.2 1.1 0 1.8-.3 2.4-1.1h2.9c-.7 2.3-3.1 3.6-5.3 3.6-3.4 0-6-2.5-6-5.8s2.6-5.9 5.9-5.9c3.3 0 5.7 2.5 5.7 6 0 .4-.1.6-.1 1m-5.6-4.5c-1.6 0-2.7.8-3.1 2.2H93c-.4-1.4-1.5-2.2-3.1-2.2m16.2 8.9v-1.4c-1.1 1.2-2.2 1.7-3.7 1.7-3.2 0-5.6-2.5-5.6-5.8s2.4-5.9 5.6-5.9c1.4 0 2.7.5 3.5 1.4V4.5h2.7v14.8h-2.5zm-3.3-9.1c-1.8 0-3.3 1.5-3.3 3.4 0 2 1.4 3.5 3.3 3.5 1.8 0 3.2-1.5 3.2-3.4 0-2-1.4-3.5-3.2-3.5M116 23.7c-2.7 0-4.8-1.3-5.7-3.5h3c.8.9 1.5 1.2 2.8 1.2 2 0 3-1.2 3.1-3.6-1 1.2-2.1 1.7-3.7 1.7-3.2 0-5.5-2.5-5.5-5.9 0-3.3 2.3-5.7 5.5-5.7 1.6 0 2.8.5 3.6 1.7V8.2h2.6v9c0 4.8-2.3 6.5-5.7 6.5m-.2-13.3c-1.9 0-3.1 1.4-3.1 3.4s1.2 3.3 3.1 3.3 3.2-1.3 3.2-3.3c.1-2-1.2-3.4-3.2-3.4m19 4.5h-8.6c.3 1.3 1.5 2.2 3.1 2.2 1.1 0 1.8-.3 2.4-1.1h2.9c-.7 2.3-3.1 3.6-5.3 3.6-3.4 0-6-2.5-6-5.8s2.6-5.9 5.9-5.9c3.3 0 5.7 2.5 5.7 6 0 .4 0 .6-.1 1m-5.6-4.5c-1.6 0-2.7.8-3.1 2.2h6.2c-.3-1.4-1.4-2.2-3.1-2.2m10.1 2.7v6.2h-2.7V8.2h2.4v1.1c.7-1 1.3-1.3 2.4-1.3h.2v2.6c-1.5-.1-2.3.8-2.3 2.5M22.5 0H1.1C.5 0 0 .5 0 1.1v21.4c0 .6.5 1.1 1.1 1.1h21.4c.6 0 1.1-.5 1.1-1.1v-9.9h-8.9c-.4 1.4-1.7 2.4-3.2 2.2-1.3-.2-2.4-1.2-2.6-2.6-.2-1.8 1.2-3.3 2.9-3.3 1.4 0 2.5.9 2.9 2.2h8.9v-10c0-.6-.5-1.1-1.1-1.1m-4.8 8.1h-1.3c-1.1-1.4-2.9-2.3-4.9-2.2-3 .1-5.5 2.6-5.6 5.7-.1 3.4 2.6 6.1 5.9 6.1 1.9 0 3.5-.9 4.6-2.2h3.4c-1.5 3.2-4.7 5.3-8.4 5.2-4.5-.2-8.2-3.9-8.4-8.4C2.8 7.2 6.8 3 11.8 3c3.6 0 6.6 2.1 8 5.2h-2.1z" fill="#0f426b"/><path class="st0" d="M11.8 2.9c-5 0-9.1 4.2-8.8 9.3.2 4.5 3.9 8.2 8.4 8.4 3.7.2 7-2 8.4-5.2h-3.4c-1.1 1.3-2.7 2.2-4.6 2.2-3.3 0-6-2.8-5.9-6.1.1-3 2.6-5.5 5.6-5.7 2-.1 3.8.8 4.9 2.2h3.4c-1.4-2.9-4.4-5.1-8-5.1"/></svg>